Coordinates
version=1
nRows=9
nColumns=24
inDegrees=yes

Units are S.I. units (second, meters, Newtons, ...)
Angles are in degrees.

endheader
time	pelvis_tilt	pelvis_list	pelvis_rotation	pelvis_tx	pelvis_ty	pelvis_tz	hip_flexion_r	hip_adduction_r	hip_rotation_r	knee_angle_r	ankle_angle_r	subtalar_angle_r	mtp_angle_r	hip_flexion_l	hip_adduction_l	hip_rotation_l	knee_angle_l	ankle_angle_l	subtalar_angle_l	mtp_angle_l	lumbar_extension	lumbar_bending	lumbar_rotation
      4.33500000	    -18.98541340	     -3.20296364	     -3.63472868	     -1.27746740	      0.00042729	     -0.27335801	     10.40402587	     10.64340639	      8.26647187	     -7.97772712	     22.46895450	      2.73126997	    -99.28459921	     42.48719470	     -1.30330096	      2.43891189	    -50.32606002	     -9.34488014	    -16.63928842	     38.66685976	     13.07822243	      2.65381445	      5.71719123
      4.34000000	    -18.94735199	     -3.08916367	     -3.98968799	     -1.27035135	      0.00039929	     -0.27300961	      9.60525146	     10.53004025	      8.39644604	     -7.54847845	     22.34286044	      2.90420739	    -99.32804611	     42.78823365	     -1.36958665	      2.38294154	    -48.75149346	     -9.15112151	    -16.62719295	     38.76733788	     12.97667374	      2.69451939	      6.06941805
      4.34500000	    -18.96935129	     -2.97819913	     -4.31205986	     -1.26326803	      0.00020044	     -0.27269443	      8.91223578	     10.41927837	      8.45181928	     -7.18577861	     22.24232851	      3.07348908	    -99.36835166	     43.12523628	     -1.41232375	      2.41752225	    -47.11178673	     -9.04053199	    -16.59343830	     38.75097026	     12.93562930	      2.73218116	      6.40137621
      4.35000000	    -18.88739279	     -2.86687556	     -4.67096629	     -1.25614305	      0.00001204	     -0.27233003	      8.09999665	     10.29634853	      8.56740885	     -6.82035708	     22.18193439	      3.28468253	    -99.44454716	     43.30761208	     -1.50602418	      2.35920230	    -45.40739813	     -9.00057827	    -16.63057511	     38.66269966	     12.78137701	      2.77174512	      6.73382879
      4.35500000	    -18.88723671	     -2.74256169	     -4.98898610	     -1.24902526	     -0.00036115	     -0.27200725	      7.40975160	     10.15473383	      8.62947659	     -6.51045775	     22.16915403	      3.51905612	    -99.51523681	     43.54643223	     -1.55886160	      2.39679565	    -43.63716233	     -9.03749719	    -16.58509304	     38.49203684	     12.71963323	      2.78985226	      7.01819876
      4.36000000	    -18.85767458	     -2.61578561	     -5.30765711	     -1.24190521	     -0.00079106	     -0.27167598	      6.71866093	     10.00742325	      8.64065605	     -6.25546186	     22.18920385	      3.78099329	    -99.60223511	     43.70904395	     -1.61676540	      2.44573658	    -41.79518038	     -9.11081952	    -16.55619200	     38.21757527	     12.62144444	      2.80300060	      7.31967168
      4.36500000	    -18.83871361	     -2.48755818	     -5.60820376	     -1.23479229	     -0.00132606	     -0.27135557	      6.06840619	      9.85358667	      8.60523643	     -6.05155481	     22.25167241	      4.07702745	    -99.70196183	     43.84658324	     -1.66824650	      2.53844839	    -39.89248590	     -9.21085344	    -16.48351152	     37.85695065	     12.53324478	      2.80678775	      7.59518253
      4.37000000	    -18.83275642	     -2.35252619	     -5.88959257	     -1.22767463	     -0.00196289	     -0.27108199	      5.46016697	      9.68358856	      8.53753746	     -5.89644889	     22.35521609	      4.41083622	    -99.80910029	     43.96174792	     -1.70973848	      2.65901824	    -37.92990215	     -9.31400715	    -16.34951729	     37.44412169	     12.45933476	      2.80559894	      7.84580446
      4.37500000	    -18.78695275	     -2.22248102	     -6.16038452	     -1.22059510	     -0.00263489	     -0.27081711	      4.85846050	      9.51620299	      8.36330244	     -5.82658689	     22.51285023	      4.79824899	    -99.97001320	     43.99106088	     -1.74704824	      2.83732011	    -35.90616610	     -9.39191840	    -16.19881827	     36.86797397	     12.32969221	      2.80079490	      8.11983358
